<svg width="40" height="40" viewBox="0 0 40 40" fill="none" xmlns="http://www.w3.org/2000/svg">
<path d="M23.6167 5H8.33333C6.5 5 5 6.5 5 8.33333V31.6667C5 33.5 6.5 35 8.33333 35H31.6667C33.5 35 35 33.5 35 31.6667V16.3833C35 15.5 34.65 14.65 34.0167 14.0333L25.9667 5.98333C25.35 5.35 24.5 5 23.6167 5ZM13.3333 25H26.6667C27.5833 25 28.3333 25.75 28.3333 26.6667C28.3333 27.5833 27.5833 28.3333 26.6667 28.3333H13.3333C12.4167 28.3333 11.6667 27.5833 11.6667 26.6667C11.6667 25.75 12.4167 25 13.3333 25ZM13.3333 18.3333H26.6667C27.5833 18.3333 28.3333 19.0833 28.3333 20C28.3333 20.9167 27.5833 21.6667 26.6667 21.6667H13.3333C12.4167 21.6667 11.6667 20.9167 11.6667 20C11.6667 19.0833 12.4167 18.3333 13.3333 18.3333ZM13.3333 11.6667H21.6667C22.5833 11.6667 23.3333 12.4167 23.3333 13.3333C23.3333 14.25 22.5833 15 21.6667 15H13.3333C12.4167 15 11.6667 14.25 11.6667 13.3333C11.6667 12.4167 12.4167 11.6667 13.3333 11.6667Z" fill="url(#paint0_linear)"/>
<defs>
<linearGradient id="paint0_linear" x1="5" y1="5" x2="32.2" y2="31.6" gradientUnits="userSpaceOnUse">
<stop stop-color="#A6C0FE"/>
<stop offset="1" stop-color="#F68084"/>
</linearGradient>
</defs>
</svg>
