<svg width="41" height="43" viewBox="0 0 41 43" fill="none" xmlns="http://www.w3.org/2000/svg">
<path fill-rule="evenodd" clip-rule="evenodd" d="M39.5092 21.1698L39.5922 41.4157H41.0001V42.6735H19.245V21.1698H28.5156V19.998H20.428L27.1302 13.3585V10.8776H31.816L31.8593 13.375L38.299 19.9365H31.1726V21.1698H39.5092ZM37.9062 27.5704H36.5315V39.6931H37.9062V27.5704ZM37.9062 24.6476H36.5315V26.0119H37.9062V24.6476Z" fill="white"/>
<path fill-rule="evenodd" clip-rule="evenodd" d="M23.8469 12.0201V14.0685L18.131 19.84V42.6735H0V41.3315H1.13131V12.134H11.9235V10.5711H1.69937L8.98136 3.21799L9.06195 0.0322765L16.0702 0V3.19954L23.3704 10.5711H14.321V12.0201H23.8469Z" fill="white"/>
</svg>
