<svg width="40" height="40" viewBox="0 0 40 40" fill="none" xmlns="http://www.w3.org/2000/svg">
<path fill-rule="evenodd" clip-rule="evenodd" d="M20 40C8.9543 40 0 31.0457 0 20C0 8.9543 8.9543 0 20 0C31.0457 0 40 8.9543 40 20C40 31.0457 31.0457 40 20 40ZM33.4537 29.3174C35.2884 26.6732 36.3636 23.4621 36.3636 19.9999C36.3636 10.9626 29.0374 3.63631 20 3.63631C10.9626 3.63631 3.63635 10.9626 3.63635 19.9999C3.63635 23.4622 4.71162 26.6733 6.54642 29.3176C8.59265 26.6146 13.4011 25.4545 20.0001 25.4545C26.5989 25.4545 31.4074 26.6146 33.4537 29.3174ZM30.845 32.254C30.3127 30.3405 26.4898 29.0909 20.0001 29.0909C13.5102 29.0909 9.68727 30.3406 9.15521 32.2541C12.0424 34.8112 15.8399 36.3636 20 36.3636C24.1601 36.3636 27.9577 34.8111 30.845 32.254ZM20 9.09085C15.5984 9.09085 12.7273 12.2831 12.7273 16.3636C12.7273 22.5952 15.9289 25.4545 20 25.4545C24.0329 25.4545 27.2728 22.6902 27.2728 16.7272C27.2728 12.5846 24.3895 9.09085 20 9.09085ZM16.3636 16.3637C16.3636 20.4896 17.8513 21.8182 20 21.8182C22.1413 21.8182 23.6364 20.5426 23.6364 16.7273C23.6364 14.4554 22.2103 12.7273 20 12.7273C17.6977 12.7273 16.3636 14.2106 16.3636 16.3637Z" fill="url(#paint0_linear)"/>
<defs>
<linearGradient id="paint0_linear" x1="0" y1="0" x2="36.2667" y2="35.4667" gradientUnits="userSpaceOnUse">
<stop stop-color="#A6C0FE"/>
<stop offset="1" stop-color="#F68084"/>
</linearGradient>
</defs>
</svg>
